<?xml version="1.0" encoding="utf-8"?>
<!-- Generator: Adobe Illustrator 23.0.0, SVG Export Plug-In . SVG Version: 6.00 Build 0)  -->
<svg version="1.1" id="Livello_1" xmlns="http://www.w3.org/2000/svg" xmlns:xlink="http://www.w3.org/1999/xlink" x="0px" y="0px"
	 viewBox="0 0 1024 1024" style="enable-background:new 0 0 1024 1024;" xml:space="preserve">
<style type="text/css">
	.st0{fill:none;stroke:#000000;stroke-miterlimit:10;}
	.st1{fill:#FFFFFF;}
	.st2{fill:#FF0000;}
	.st3{fill:#FF1717;}
	.st4{fill:#C4152B;}
</style>
<g>
	<path class="st4" d="M810.28,618.54c-1.09-37.54-3.97-75.06-5.49-112.6c-1.68-41.35-3.46-82.73-7.35-123.95
		c-3.8-40.33-9.39-80.8-20.29-119.88c-9.89-35.47-24.54-69.51-49.91-96.74c-48.45-52.01-121.78-69.25-190.34-72.33
		c-68.47-3.08-143.15,3.64-202.56,40.79c-30.12,18.83-54.27,45.6-69.81,77.55c-16.87,34.67-25.39,73.44-31.45,111.3
		c-12.8,79.95-12.9,161.08-17.33,241.74c-2.09,37.9-5.84,76.24-0.09,114.01c5.52,36.25,21.47,67.95,51.2,90.1
		c27.44,20.45,60.94,31.64,94.12,38.6c34.73,7.29,70.33,10.06,105.77,10.7c14.93,0.26,29.85,0.13,44.78-0.3
		c67.41,1.96,139.27-0.18,202.57-25.8c30.77-12.46,60.18-32,76.72-61.58C809.6,696.57,811.36,656.11,810.28,618.54z M333.98,633.96
		c-33.69,0-61-27.31-61-61s27.31-61,61-61c33.68,0,60.99,27.31,60.99,61S367.66,633.96,333.98,633.96z M281.89,376.95
		c-0.84-2.59-0.49-7.42,0-17c1.45-28.58,6.9-51.65,11.67-67.5c0.92-1.75,2.36-3.98,4.61-6c5.83-5.23,12.71-5.12,14.81-5H488v121.5
		h-1C353.74,403.57,291.45,406.57,281.89,376.95z M511.48,759.83c-36.82,0-66.5-30.59-66.51-66.51c0-1.45,0.04-2.89,0.14-4.32
		h132.75c0.1,1.43,0.14,2.87,0.14,4.32C577.96,729.33,548.25,759.83,511.48,759.83z M536.39,401.95h-1.01v-121.5H710.4
		c2.1-0.12,8.98-0.23,14.81,5c2.25,2.02,3.7,4.25,4.61,6c4.77,15.85,10.22,38.92,11.67,67.5c0.49,9.58,0.84,14.41,0,17
		C731.93,405.57,669.64,402.57,536.39,401.95z M689.98,634.96c-33.69,0-61-27.31-61-61s27.31-60.99,61-60.99
		c33.68,0,60.99,27.3,60.99,60.99S723.66,634.96,689.98,634.96z"/>
	<g>
		<path class="st4" d="M748.05,964.61l-61.91-124.33c-2.94-5.91-0.51-13.15,5.39-16.09l20.53-10.22c5.91-2.94,13.15-0.51,16.09,5.39
			l61.91,124.33c2.94,5.91,0.51,13.15-5.39,16.09l-20.53,10.22C758.24,972.95,751,970.52,748.05,964.61z"/>
		<path class="st4" d="M279.16,964.61l61.91-124.33c2.94-5.91,0.51-13.15-5.39-16.09l-20.53-10.22c-5.91-2.94-13.15-0.51-16.09,5.39
			l-61.91,124.33c-2.94,5.91-0.51,13.15,5.39,16.09l20.53,10.22C268.97,972.95,276.22,970.52,279.16,964.61z"/>
		<path class="st4" d="M301,909h425c6.6,0,12-5.4,12-12v-22.48c0-6.6-5.4-12-12-12H301c-6.6,0-12,5.4-12,12V897
			C289,903.6,294.4,909,301,909z"/>
	</g>
</g>
</svg>
